<?xml version="1.0" encoding="utf-8"?>
<!-- Generator: Adobe Illustrator 24.3.0, SVG Export Plug-In . SVG Version: 6.00 Build 0)  -->
<svg version="1.1" id="Layer_1" xmlns="http://www.w3.org/2000/svg" xmlns:xlink="http://www.w3.org/1999/xlink" x="0px" y="0px"
	 viewBox="0 0 675.97 352.23" style="enable-background:new 0 0 675.97 352.23;" xml:space="preserve">
<style type="text/css">
	.st0{fill:#FFFFFF;}
</style>
<g>
	<path class="st0" d="M20.5,248.96h145.67V103.27H20.5V248.96z M113.87,114.4c25.75,8.44,44.35,32.85,44.43,61.69
		c0.07,28.37-18.16,52.72-44.43,61.72V114.4z M93.31,111.1c4.65,0,9.61,0.62,13.74,1.44c0,33.01-31.92,60.17-64.86,60.17
		l-13.78-0.02C30.67,138.86,58.66,111.1,93.31,111.1 M42.19,179.58c32.94,0,64.85,27.13,64.85,60.11
		c-4.12,0.84-9.32,1.47-13.73,1.47c-34.66-0.05-63.6-27.89-64.91-61.57H42.19z"/>
	<g>
		<path class="st0" d="M202.94,139.26h44.79v11.69h-31.86v17.07h29.79v11.69h-29.79v9.11c0,8.9,6.41,10.86,10.34,10.86h22.24v11.69
			h-22.86c-15.31,0-22.65-8.27-22.65-22.96V139.26z"/>
		<path class="st0" d="M257.27,139.26h12.42v72.1h-12.42V139.26z"/>
		<path class="st0" d="M277.85,185.3c0-16.75,11.69-27.52,27.31-27.52c15.52,0,25.76,11.69,25.76,26.28c0,0,0,2.27-0.2,4.35h-40.55
			c0.41,8.27,6.51,13.65,15.72,13.65c6.31,0,10.14-2.07,14.07-6.01l7.45,7.24c-6.73,7.13-14.08,9.31-21.93,9.31
			c-16.34,0-27.62-10.55-27.62-26.9V185.3z M318.3,179.71c0-6.21-5.9-11.38-13.14-11.38c-7.76,0-14.17,5.07-14.68,11.38H318.3z"/>
		<path class="st0" d="M365.91,157.57c7.76,0,14.89,2.59,20.89,9l-7.65,7.97c-3.52-3.62-7.66-5.69-13.24-5.69
			c-9.11,0-16.04,6.93-16.04,16.35c0,9.41,6.93,16.34,16.04,16.34c5.58,0,9.72-2.06,13.24-5.69l7.65,7.96c-6,6.42-13.13,9-20.89,9
			c-15.73,0-28.34-11.69-28.34-27.62S350.18,157.57,365.91,157.57z"/>
		<path class="st0" d="M394.75,139.26h12.42v19.96h11.48v11.28h-11.48v18.2c0,7.97,4.35,11.18,10.86,11.18h0.62v11.69h-2.48
			c-8.58,0-21.41-4.35-21.41-22.04V139.26z"/>
		<path class="st0" d="M428.88,159.22h12.31v7.76c2.48-5.37,8.07-8.79,15.52-8.79c1.35,0,3.21,0.21,3.72,0.31v12
			c-1.44-0.31-3.2-0.51-5.17-0.51c-8.58,0-14.07,5.37-14.07,13.96v27.42h-12.31V159.22z"/>
		<path class="st0" d="M490.78,157.68c15.73,0,28.45,12,28.45,27.62c0,15.63-12.72,27.62-28.45,27.62
			c-15.83,0-28.45-11.99-28.45-27.62C462.33,169.68,474.95,157.68,490.78,157.68z M490.78,201.65c9.11,0,16.14-7.14,16.14-16.35
			s-7.03-16.34-16.14-16.34c-9.21,0-16.14,7.13-16.14,16.34S481.57,201.65,490.78,201.65z"/>
		<path class="st0" d="M526.86,139.26h12.41v72.1h-12.41V139.26z"/>
		<path class="st0" d="M548.78,159.22h12.52v30.42c0,8.17,4.86,11.69,11.38,11.69s11.38-3.52,11.38-11.79v-30.32h12.52v31.14
			c0,15.1-10.97,22.35-24,22.35c-12.93,0-23.8-7.14-23.8-22.04V159.22z"/>
		<path class="st0" d="M622.05,183.85l-18-24.62h13.45l11.37,15.63l11.28-15.63h13.55l-18,24.52l19.76,27.62h-13.35l-13.24-18.41
			l-13.24,18.41h-13.34L622.05,183.85z"/>
	</g>
</g>
</svg>
